<?xml version="1.0" encoding="UTF-8" standalone="no"?>
<svg width="16px" height="15px" viewBox="0 0 16 15" version="1.1" xmlns="http://www.w3.org/2000/svg" xmlns:xlink="http://www.w3.org/1999/xlink">
    <!-- Generator: Sketch 45.2 (43514) - http://www.bohemiancoding.com/sketch -->
    <title></title>
    <desc>Created with Sketch.</desc>
    <defs></defs>
    <g id="Page-1" stroke="none" stroke-width="1" fill="none" fill-rule="evenodd">
        <g id="1200-copy-17" transform="translate(-337.000000, -1922.000000)" fill="#FF3C3C">
            <g id="Group" transform="translate(90.000000, 1830.000000)">
                <path d="M255.011719,106.5 L253.920169,105.497442 C251.971803,103.754893 250.422523,102.203332 249.272282,100.842711 C248.122042,99.4820904 247.535193,98.09762 247.511719,96.6892583 C247.535193,95.4957315 247.93425,94.505119 248.708902,93.7173913 C249.483554,92.9296636 250.457722,92.5238705 251.631437,92.5 C252.288717,92.5 252.910777,92.6432211 253.497634,92.9296675 C254.084492,93.216114 254.589181,93.5980368 255.011719,94.0754476 C255.434256,93.5980368 255.938946,93.216114 256.525803,92.9296675 C257.112661,92.6432211 257.73472,92.5 258.392,92.5 C259.565715,92.5238705 260.539884,92.9296636 261.314536,93.7173913 C262.089187,94.505119 262.488244,95.4957315 262.511719,96.6892583 C262.488244,98.09762 261.901396,99.4820904 260.751155,100.842711 C259.600915,102.203332 258.051635,103.754893 256.103268,105.497442 L255.011719,106.5 Z" id=""></path>
            </g>
        </g>
    </g>
</svg>